<?xml version="1.0" standalone="no"?>
<!DOCTYPE svg PUBLIC "-//W3C//DTD SVG 20010904//EN"
 "http://www.w3.org/TR/2001/REC-SVG-20010904/DTD/svg10.dtd">
<svg version="1.0" xmlns="http://www.w3.org/2000/svg"
 width="1024.000000pt" height="1024.000000pt" viewBox="0 0 1024.000000 1024.000000"
 preserveAspectRatio="xMidYMid meet">

<g transform="translate(0.000000,1024.000000) scale(0.100000,-0.100000)"
fill="#000000" stroke="none">
<path d="M4883 7713 c15 -2 37 -2 50 0 12 2 0 4 -28 4 -27 0 -38 -2 -22 -4z"/>
<path d="M4544 7689 c-10 -17 13 -36 27 -22 12 12 4 33 -11 33 -5 0 -12 -5
-16 -11z"/>
<path d="M4901 7364 c-20 -26 -21 -29 -6 -40 21 -16 55 -6 55 15 0 10 -6 25
-13 35 -13 17 -15 17 -36 -10z"/>
<path d="M6227 7352 c-3 -4 -3 -19 0 -35 4 -22 11 -27 34 -27 16 0 29 5 29 11
0 5 5 7 10 4 6 -4 10 7 10 24 0 29 -2 31 -39 31 -22 0 -42 -3 -44 -8z"/>
<path d="M5096 7193 c-12 -12 -6 -33 9 -33 8 0 15 6 15 14 0 17 -14 28 -24 19z"/>
<path d="M6900 7179 c-6 -11 -9 -34 -7 -52 3 -26 8 -33 31 -35 49 -6 83 46 57
87 -5 7 -23 15 -40 17 -23 3 -33 -2 -41 -17z m78 -31 c4 -32 -22 -50 -55 -37
-23 8 -28 24 -17 54 5 11 16 15 38 13 25 -2 32 -8 34 -30z"/>
<path d="M5365 7180 c-3 -6 2 -13 12 -17 21 -8 43 -28 43 -39 0 -4 7 -16 17
-26 11 -12 12 -18 3 -18 -8 0 -10 -8 -7 -21 4 -15 2 -19 -10 -15 -8 3 -27 9
-41 12 -54 13 0 -23 103 -68 168 -74 230 -108 214 -120 -10 -7 -8 -8 8 -3 12
3 24 1 28 -5 10 -16 -61 -12 -103 6 -34 15 -291 104 -300 104 -2 0 0 -6 4 -12
6 -10 4 -10 -7 -2 -20 15 -51 26 -45 15 3 -5 -7 -11 -22 -14 -15 -3 -28 -1
-30 4 -2 5 -12 9 -21 9 -10 0 -35 12 -57 26 -21 14 -47 27 -58 29 -12 2 -55 9
-96 16 -83 14 -381 18 -475 7 -33 -4 -82 -10 -110 -13 -27 -3 -68 -10 -90 -15
-22 -5 -77 -17 -123 -26 -83 -17 -135 -40 -96 -42 11 0 51 4 89 9 39 5 93 11
120 13 28 2 79 7 115 10 43 4 57 3 40 -3 -24 -9 -23 -9 10 -12 19 -1 44 -1 54
0 11 1 16 -2 12 -6 -4 -4 -19 -8 -34 -9 -64 -3 -72 -5 -69 -16 1 -9 -15 -14
-51 -16 -30 -2 -51 1 -48 6 7 12 -19 12 -81 1 -39 -8 -51 -14 -46 -25 3 -8 1
-14 -4 -14 -5 0 -10 -6 -10 -13 0 -9 16 -12 56 -10 43 2 51 0 34 -7 -13 -5
-23 -12 -23 -15 0 -9 54 -3 180 22 159 32 402 43 655 32 159 -7 204 -13 275
-34 47 -15 97 -33 112 -41 15 -8 31 -15 35 -14 5 0 16 -7 26 -15 9 -8 17 -12
17 -10 0 8 64 -26 73 -39 6 -7 7 -6 4 4 -5 20 19 43 35 34 9 -5 8 -2 -1 9 -23
29 -8 28 55 -5 181 -94 386 -236 572 -397 67 -58 127 -108 133 -110 13 -4 -33
88 -79 157 -50 76 -204 240 -297 317 -44 36 -99 82 -123 101 -24 20 -41 39
-38 42 10 9 -15 31 -29 26 -7 -3 -16 0 -21 7 -5 8 -3 10 7 4 8 -5 5 1 -5 14
-11 12 -25 20 -32 17 -7 -3 -15 2 -18 10 -3 9 -11 12 -17 9 -6 -4 -36 9 -67
28 -101 62 -322 166 -339 160 -11 -4 -14 -3 -9 5 4 7 5 12 2 12 -3 0 -8 -5
-11 -10z"/>
<path d="M4702 7120 c0 -14 2 -19 5 -12 2 6 2 18 0 25 -3 6 -5 1 -5 -13z"/>
<path d="M6074 7053 c36 -37 66 -71 66 -76 0 -5 18 -29 40 -54 43 -49 49 -63
25 -63 -19 0 -19 -9 1 -31 15 -17 15 -18 -6 -14 -13 2 -32 12 -42 22 -21 19
-68 19 -80 0 -4 -7 14 -31 42 -57 139 -128 227 -240 414 -534 l76 -119 -29
-21 -29 -22 30 -74 c32 -81 164 -508 194 -630 l19 -75 6 60 c7 81 1 297 -12
420 -14 132 -54 332 -84 421 -28 83 -112 263 -149 317 -14 20 -22 37 -18 37 4
0 2 4 -4 8 -6 4 -28 32 -49 62 -115 165 -142 200 -188 248 -28 28 -55 52 -60
52 -5 0 -54 43 -110 95 -116 109 -152 128 -53 28z"/>
<path d="M4686 6833 c-45 -4 -47 -5 -28 -18 15 -12 27 -12 51 -4 17 6 31 15
31 20 0 5 -1 8 -2 7 -2 -1 -25 -3 -52 -5z"/>
<path d="M4778 6833 c7 -3 16 -2 19 1 4 3 -2 6 -13 5 -11 0 -14 -3 -6 -6z"/>
<path d="M3792 6788 c-16 -16 -15 -33 4 -48 22 -19 54 12 38 37 -14 22 -27 26
-42 11z"/>
<path d="M4387 6784 c-47 -15 -48 -16 -34 -37 18 -27 43 -33 65 -15 9 8 31 14
47 12 17 -1 24 0 18 3 -7 2 -13 16 -13 29 0 28 -13 29 -83 8z"/>
<path d="M5660 6750 c0 -5 5 -10 11 -10 5 0 7 5 4 10 -3 6 -8 10 -11 10 -2 0
-4 -4 -4 -10z"/>
<path d="M6692 6628 c-30 -30 0 -68 39 -48 22 12 23 15 9 41 -12 22 -30 25
-48 7z"/>
<path d="M7156 6621 c-9 -9 -16 -22 -16 -27 0 -5 5 -1 11 8 5 10 16 15 24 12
8 -4 15 -1 15 4 0 20 -17 22 -34 3z"/>
<path d="M4202 6545 c-128 -66 -475 -293 -586 -382 -33 -26 -84 -77 -114 -113
-30 -36 -65 -77 -78 -92 -13 -15 -24 -34 -24 -42 0 -8 -3 -16 -8 -18 -15 -6
-81 -116 -129 -218 -110 -230 -125 -261 -121 -266 3 -2 33 41 69 95 35 55 66
98 68 96 2 -2 -17 -39 -42 -82 -119 -208 -203 -391 -185 -409 3 -2 22 30 42
72 21 41 40 74 42 71 2 -2 -10 -41 -26 -86 -17 -45 -26 -80 -20 -76 5 3 10 1
10 -4 0 -6 -4 -11 -10 -11 -5 0 -10 -5 -10 -10 0 -6 10 -8 24 -4 13 3 27 1 30
-5 12 -19 23 -12 37 22 43 109 261 517 276 517 2 0 -8 -22 -22 -50 -36 -71
-23 -62 24 18 43 71 50 76 26 19 -8 -19 -12 -37 -9 -40 3 -3 -3 -22 -14 -44
-10 -21 -22 -51 -26 -68 -4 -16 -12 -32 -17 -35 -13 -9 -48 -190 -36 -190 5 0
7 -13 4 -30 -4 -19 -2 -30 4 -30 7 0 9 -9 6 -21 -4 -15 -2 -19 9 -15 19 7 17
-17 -6 -79 -10 -28 -19 -41 -20 -30 l-1 20 -11 -20 c-14 -23 -12 -13 -27 -164
-12 -119 -12 -191 0 -191 4 0 10 -57 14 -127 9 -161 28 -286 66 -433 55 -212
68 -250 84 -244 18 7 18 14 4 51 -6 15 -15 62 -19 103 -5 41 -11 98 -15 125
-4 33 -3 45 3 36 12 -17 24 1 15 25 -4 12 -3 15 5 10 8 -5 12 3 12 24 0 42 23
34 31 -11 4 -19 7 12 7 71 0 58 -3 128 -8 155 -18 99 -31 549 -20 683 23 283
23 290 6 262 -8 -14 -15 -20 -16 -15 0 6 -11 11 -25 11 -20 2 -25 -3 -25 -21
0 -12 -7 -28 -15 -35 -14 -11 -15 -9 -11 21 9 70 100 318 158 433 46 92 118
203 244 382 126 178 121 173 394 359 132 90 139 95 122 95 -7 0 -70 -29 -140
-65z m-792 -1324 c0 -6 -4 -13 -10 -16 -5 -3 -10 1 -10 9 0 9 5 16 10 16 6 0
10 -4 10 -9z"/>
<path d="M2973 6498 c3 -9 1 -19 -6 -22 -7 -2 -1 -5 12 -5 21 -1 22 1 10 17
-21 27 -23 28 -16 10z"/>
<path d="M2971 6434 c0 -11 3 -14 6 -6 3 7 2 16 -1 19 -3 4 -6 -2 -5 -13z"/>
<path d="M6892 6355 c4 -61 1 -75 -19 -106 -19 -29 -23 -44 -18 -73 12 -59 -2
-41 -26 37 l-23 72 -8 -45 c-6 -33 -1 -85 17 -195 43 -258 58 -605 35 -785 -6
-41 -11 -120 -12 -175 -1 -96 -3 -105 -50 -218 -51 -120 -68 -207 -40 -207 9
0 11 7 7 20 -8 26 19 38 39 18 12 -13 9 -25 -26 -93 -57 -111 -138 -240 -225
-358 -150 -202 -141 -194 -408 -377 -82 -56 -139 -99 -125 -95 48 14 266 123
390 195 263 153 396 259 467 374 14 22 45 64 68 91 23 28 59 76 79 108 46 72
171 325 164 332 -3 3 -19 -21 -36 -53 -30 -56 -72 -106 -72 -85 0 6 11 27 25
48 36 53 103 188 132 265 13 36 35 88 49 117 14 28 24 59 22 68 -3 17 -31 -32
-69 -124 -21 -49 -23 -52 -31 -30 -6 14 -3 41 6 73 8 28 17 65 20 81 2 17 8
38 11 48 5 11 2 17 -7 17 -17 0 -41 -47 -33 -61 4 -5 1 -9 -5 -9 -6 0 -8 -4
-5 -10 3 -5 1 -18 -5 -27 -11 -17 -11 -17 -6 0 11 35 -4 15 -40 -53 -21 -40
-41 -67 -47 -63 -6 4 -8 0 -4 -10 4 -10 2 -16 -5 -14 -7 1 -50 -72 -97 -163
-48 -92 -94 -178 -104 -193 -31 -48 -38 -19 -11 51 37 97 75 214 79 237 2 16
21 109 39 197 2 10 -1 15 -10 11 -29 -11 -27 46 6 140 48 141 53 176 47 347
-9 235 -41 455 -92 639 -32 114 -48 127 -43 36z m319 -1098 c-10 -9 -11 -8 -5
6 3 10 9 15 12 12 3 -3 0 -11 -7 -18z m-271 -547 c0 -16 -26 -29 -40 -20 -11
7 -11 11 -1 24 12 14 41 12 41 -4z"/>
<path d="M3299 6094 c-11 -13 -10 -17 2 -25 20 -12 26 -11 32 5 9 23 -18 39
-34 20z"/>
<path d="M7408 6003 c6 -2 18 -2 25 0 6 3 1 5 -13 5 -14 0 -19 -2 -12 -5z"/>
<path d="M7216 5874 c-16 -11 -17 -16 -6 -29 15 -18 70 -20 70 -2 -1 33 -37
51 -64 31z"/>
<path d="M2877 5773 c-4 -3 -7 -15 -7 -25 0 -20 44 -26 55 -8 14 22 -30 52
-48 33z"/>
<path d="M7355 5630 c-3 -6 1 -7 9 -4 18 7 21 14 7 14 -6 0 -13 -4 -16 -10z"/>
<path d="M7399 5628 c7 -10 11 -27 8 -38 -3 -11 -1 -18 4 -14 15 9 10 41 -8
55 -16 13 -17 12 -4 -3z"/>
<path d="M2696 5465 c-3 -8 -1 -15 4 -15 6 0 10 7 10 15 0 8 -2 15 -4 15 -2 0
-6 -7 -10 -15z"/>
<path d="M7535 5210 c4 -6 11 -8 16 -5 14 9 11 15 -7 15 -8 0 -12 -5 -9 -10z"/>
<path d="M2632 5007 c-5 -7 -13 -22 -16 -34 -6 -18 0 -24 39 -39 40 -15 48
-15 61 -3 13 13 11 19 -13 45 -33 36 -58 47 -71 31z"/>
<path d="M7527 5003 c-12 -11 -8 -23 8 -23 8 0 15 7 15 15 0 16 -12 20 -23 8z"/>
<path d="M3090 4895 c-18 -21 -5 -45 25 -45 20 0 25 5 25 24 0 13 -7 27 -16
30 -21 8 -20 8 -34 -9z"/>
<path d="M2962 4837 c-25 -12 -26 -34 -1 -50 22 -14 49 -2 49 21 0 29 -21 41
-48 29z"/>
<path d="M6557 4723 c-4 -3 -7 -12 -7 -20 0 -15 26 -18 34 -4 7 11 -18 33 -27
24z"/>
<path d="M3573 4618 c7 -97 46 -272 90 -396 62 -175 269 -518 376 -622 20 -20
71 -74 113 -122 108 -120 306 -282 212 -173 -32 38 -55 81 -47 89 4 3 14 6 24
6 14 0 18 7 16 30 -2 26 -5 28 -27 23 -14 -3 -30 -12 -36 -19 -16 -19 -17 -19
-54 28 -26 32 -29 40 -14 35 10 -4 -1 10 -24 32 -34 30 -42 44 -38 59 9 28 30
43 50 36 27 -10 14 -39 -16 -39 -26 1 -26 0 -11 -17 9 -10 20 -18 24 -18 4 0
23 -13 41 -30 18 -16 38 -30 45 -30 6 0 16 -8 22 -17 5 -10 13 -15 16 -11 4 4
-7 28 -24 53 -36 53 -37 57 -15 48 28 -10 2 27 -82 118 -145 158 -196 222
-295 371 -86 129 -99 154 -96 184 3 19 0 34 -5 34 -5 0 -6 5 -3 10 3 6 0 10
-7 10 -10 0 -10 2 -1 8 8 5 9 13 3 22 -7 11 -12 9 -28 -10 l-19 -24 -37 58
c-20 32 -34 61 -31 64 3 4 10 0 15 -8 8 -12 10 -11 10 6 0 11 5 25 12 32 9 9
7 21 -7 52 -10 22 -15 43 -12 47 4 3 7 1 7 -6 0 -7 5 -9 10 -6 10 6 5 40 -13
85 -6 14 -10 27 -10 30 1 3 -5 11 -13 18 -12 11 -14 9 -14 -8 0 -11 -7 -20
-16 -20 -8 0 -13 4 -10 9 11 18 -6 41 -30 41 -14 0 -27 7 -30 15 -4 8 -11 15
-17 15 -6 0 -8 -31 -4 -92z m487 -874 c11 -12 10 -18 -3 -32 -16 -15 -18 -15
-33 0 -19 18 -12 48 9 48 8 0 20 -7 27 -16z"/>
<path d="M7065 4320 c-3 -5 -2 -10 4 -10 5 0 13 5 16 10 3 6 2 10 -4 10 -5 0
-13 -4 -16 -10z"/>
<path d="M3600 4146 c7 -7 14 -6 21 1 9 9 7 12 -9 10 -14 -1 -18 -5 -12 -11z"/>
<path d="M6835 4140 c4 -6 11 -8 16 -5 14 9 11 15 -7 15 -8 0 -12 -5 -9 -10z"/>
<path d="M3941 4113 c30 -82 101 -176 234 -311 77 -79 163 -161 192 -184 29
-22 50 -44 47 -49 -3 -5 -1 -9 5 -9 6 0 13 -11 17 -24 5 -22 103 -110 122
-111 4 -1 16 -6 28 -12 13 -7 25 -8 30 -3 6 6 43 -11 94 -42 47 -28 114 -64
150 -81 36 -16 90 -41 120 -54 57 -27 317 -123 329 -123 3 1 -12 10 -34 22
-22 11 -42 24 -45 27 -6 8 -124 61 -136 61 -20 0 -91 44 -117 74 l-28 31 23 6
c13 4 17 7 11 8 -7 1 -13 6 -13 12 0 6 9 8 23 4 36 -10 -26 26 -118 69 -110
51 -225 118 -220 126 8 12 88 -7 182 -43 165 -64 399 -127 543 -147 184 -25
669 -13 745 19 33 14 89 35 100 38 6 1 33 11 60 22 l50 19 -106 -5 c-76 -4
-109 -2 -114 7 -4 7 1 14 15 17 15 4 18 8 9 14 -8 5 1 10 24 14 22 4 34 11 30
18 -4 6 0 8 11 4 9 -4 15 -3 11 2 -3 5 1 12 7 15 7 3 -12 4 -42 1 -50 -5 -53
-4 -31 8 l23 14 -22 6 c-13 3 -60 -3 -105 -14 -221 -52 -550 -72 -815 -50
-183 16 -262 37 -398 105 -74 37 -112 51 -115 43 -3 -9 -7 -9 -19 0 -12 11
-18 9 -34 -8 -19 -22 -19 -22 6 -9 25 13 25 13 5 -7 -20 -20 -20 -20 -65 2
-125 63 -421 276 -521 375 -36 36 -87 80 -113 98 l-46 33 11 -28z"/>
<path d="M3050 3945 c-10 -12 -10 -15 4 -15 9 0 16 7 16 15 0 8 -2 15 -4 15
-2 0 -9 -7 -16 -15z"/>
<path d="M3033 3895 c4 -36 13 -39 12 -5 0 17 -3 30 -8 30 -4 0 -6 -11 -4 -25z"/>
<path d="M3090 3900 c0 -5 5 -10 11 -10 5 0 7 5 4 10 -3 6 -8 10 -11 10 -2 0
-4 -4 -4 -10z"/>
<path d="M6976 3801 c-3 -5 2 -19 13 -32 l18 -23 7 22 c4 12 4 26 1 32 -8 12
-32 13 -39 1z"/>
<path d="M6089 3715 c-3 -2 -61 -20 -129 -40 -68 -20 -128 -43 -135 -52 -7 -9
-19 -14 -28 -10 -9 3 -17 1 -19 -4 -2 -5 -28 -11 -58 -14 -30 -2 -75 -10 -100
-19 l-45 -16 100 6 c122 7 389 50 393 64 2 5 13 10 25 10 11 0 17 3 14 7 -4 3
-2 12 4 20 9 10 8 13 -4 13 -10 0 -15 7 -12 20 4 20 2 24 -6 15z"/>
<path d="M6837 3633 c-22 -21 17 -81 46 -70 14 5 15 45 2 66 -7 12 -38 15 -48
4z"/>
<path d="M6440 3490 c-12 -8 -11 -10 8 -10 12 0 22 5 22 10 0 13 -11 13 -30 0z"/>
<path d="M6348 3463 c7 -3 16 -2 19 1 4 3 -2 6 -13 5 -11 0 -14 -3 -6 -6z"/>
<path d="M3292 3408 c-7 -7 -12 -28 -11 -47 1 -37 3 -35 13 10 10 45 59 48 76
5 9 -21 9 -21 9 1 1 36 -60 58 -87 31z"/>
<path d="M3343 3333 c-13 -2 -23 -9 -23 -14 0 -14 26 -11 40 6 7 8 11 14 9 14
-2 -1 -14 -4 -26 -6z"/>
<path d="M5698 3273 c7 -3 16 -2 19 1 4 3 -2 6 -13 5 -11 0 -14 -3 -6 -6z"/>
<path d="M5384 3249 c-3 -6 1 -18 10 -27 16 -16 18 -16 31 2 8 10 12 23 9 27
-7 13 -42 11 -50 -2z"/>
<path d="M6387 3053 c-10 -9 -9 -41 2 -47 4 -3 6 6 3 19 -3 20 0 25 17 25 24
0 29 -27 9 -50 -11 -12 -10 -12 5 -1 9 7 17 24 17 37 0 18 -5 24 -23 24 -13 0
-27 -3 -30 -7z"/>
<path d="M5731 3024 c0 -11 3 -14 6 -6 3 7 2 16 -1 19 -3 4 -6 -2 -5 -13z"/>
<path d="M4932 2958 c-19 -19 -14 -28 14 -28 18 0 25 5 22 17 -4 21 -21 26
-36 11z"/>
<path d="M4857 2906 c-7 -18 1 -26 25 -26 11 0 18 7 18 20 0 23 -35 28 -43 6z"/>
<path d="M6163 2903 c-22 -8 -15 -51 8 -58 27 -9 42 6 37 36 -3 24 -21 32 -45
22z m34 -37 c-4 -9 -11 -16 -17 -16 -17 0 -24 31 -9 41 18 11 34 -5 26 -25z"/>
<path d="M5410 2771 c0 -44 2 -49 25 -53 14 -3 28 -1 31 3 3 5 11 9 17 9 7 0
6 -4 -3 -10 -12 -8 -10 -10 11 -10 33 0 37 5 31 35 -2 15 -9 22 -16 18 -19
-12 -36 -12 -37 0 0 7 -2 21 -4 32 -4 20 -4 20 11 1 12 -16 14 -17 14 -4 0 9
8 19 18 21 9 3 -9 5 -40 6 l-58 1 0 -49z"/>
<path d="M4406 2753 c3 -20 10 -44 17 -52 9 -12 9 -13 0 -7 -8 4 -13 1 -13 -8
0 -21 56 -22 64 -1 3 10 -1 15 -14 15 -25 0 -30 10 -19 39 7 17 15 22 29 18
11 -3 20 0 20 6 0 7 7 4 14 -6 13 -16 14 -16 18 8 5 25 4 25 -58 25 l-62 0 4
-37z"/>
<path d="M5764 2766 c-9 -24 12 -44 28 -28 10 10 8 16 -5 29 -15 15 -17 15
-23 -1z"/>
<path d="M4493 2673 c9 -2 23 -2 30 0 6 3 -1 5 -18 5 -16 0 -22 -2 -12 -5z"/>
</g>
</svg>
